<mxfile host="app.diagrams.net" agent="Mozilla/5.0 (Macintosh; Intel Mac OS X 10_15_7) AppleWebKit/605.1.15 (KHTML, like Gecko) Version/18.1 Safari/605.1.15" version="24.8.4">
  <diagram name="Page-1" id="Y4lIMBe28h2u2u2a3vKN">
    <mxGraphModel dx="1189" dy="679" grid="1" gridSize="9" guides="1" tooltips="1" connect="1" arrows="1" fold="1" page="1" pageScale="1" pageWidth="850" pageHeight="1100" math="0" shadow="0">
      <root>
        <mxCell id="0" />
        <mxCell id="1" parent="0" />
        <mxCell id="EvORvr17HT1seJ1Nro3n-1" value="" style="shape=umlLifeline;perimeter=lifelinePerimeter;whiteSpace=wrap;html=1;container=1;dropTarget=0;collapsible=0;recursiveResize=0;outlineConnect=0;portConstraint=eastwest;newEdgeStyle={&quot;curved&quot;:0,&quot;rounded&quot;:0};participant=umlActor;" parent="1" vertex="1">
          <mxGeometry x="63" y="154" width="20" height="252" as="geometry" />
        </mxCell>
        <mxCell id="EvORvr17HT1seJ1Nro3n-4" value="Biometric Service" style="shape=umlLifeline;perimeter=lifelinePerimeter;whiteSpace=wrap;html=1;container=1;dropTarget=0;collapsible=0;recursiveResize=0;outlineConnect=0;portConstraint=eastwest;newEdgeStyle={&quot;curved&quot;:0,&quot;rounded&quot;:0};" parent="1" vertex="1">
          <mxGeometry x="192" y="154" width="162" height="252" as="geometry" />
        </mxCell>
        <mxCell id="EvORvr17HT1seJ1Nro3n-5" value="" style="html=1;points=[[0,0,0,0,5],[0,1,0,0,-5],[1,0,0,0,5],[1,1,0,0,-5]];perimeter=orthogonalPerimeter;outlineConnect=0;targetShapes=umlLifeline;portConstraint=eastwest;newEdgeStyle={&quot;curved&quot;:0,&quot;rounded&quot;:0};" parent="EvORvr17HT1seJ1Nro3n-4" vertex="1">
          <mxGeometry x="76" y="63" width="10" height="162" as="geometry" />
        </mxCell>
        <mxCell id="EvORvr17HT1seJ1Nro3n-11" value=":Local Storage" style="shape=umlLifeline;perimeter=lifelinePerimeter;whiteSpace=wrap;html=1;container=1;dropTarget=0;collapsible=0;recursiveResize=0;outlineConnect=0;portConstraint=eastwest;newEdgeStyle={&quot;curved&quot;:0,&quot;rounded&quot;:0};" parent="1" vertex="1">
          <mxGeometry x="381" y="153" width="100" height="244" as="geometry" />
        </mxCell>
        <mxCell id="EvORvr17HT1seJ1Nro3n-15" value="Register Authenticate Biometric Android" style="text;strokeColor=none;fillColor=none;html=1;fontSize=24;fontStyle=1;verticalAlign=middle;align=center;" parent="1" vertex="1">
          <mxGeometry x="263" y="54" width="100" height="40" as="geometry" />
        </mxCell>
        <mxCell id="EvORvr17HT1seJ1Nro3n-16" value="" style="html=1;points=[[0,0,0,0,5],[0,1,0,0,-5],[1,0,0,0,5],[1,1,0,0,-5]];perimeter=orthogonalPerimeter;outlineConnect=0;targetShapes=umlLifeline;portConstraint=eastwest;newEdgeStyle={&quot;curved&quot;:0,&quot;rounded&quot;:0};" parent="1" vertex="1">
          <mxGeometry x="68" y="224" width="10" height="164" as="geometry" />
        </mxCell>
        <mxCell id="EvORvr17HT1seJ1Nro3n-10" value="save data" style="html=1;verticalAlign=bottom;endArrow=block;curved=0;rounded=0;" parent="1" target="EvORvr17HT1seJ1Nro3n-18" edge="1">
          <mxGeometry x="-0.375" width="80" relative="1" as="geometry">
            <mxPoint x="78" y="352" as="sourcePoint" />
            <mxPoint x="303" y="352" as="targetPoint" />
            <mxPoint as="offset" />
          </mxGeometry>
        </mxCell>
        <mxCell id="EvORvr17HT1seJ1Nro3n-17" value="authenticate (alias)" style="html=1;verticalAlign=bottom;endArrow=block;curved=0;rounded=0;" parent="1" edge="1" target="EvORvr17HT1seJ1Nro3n-5">
          <mxGeometry width="80" relative="1" as="geometry">
            <mxPoint x="79" y="234" as="sourcePoint" />
            <mxPoint x="246" y="235" as="targetPoint" />
          </mxGeometry>
        </mxCell>
        <mxCell id="EvORvr17HT1seJ1Nro3n-18" value="" style="html=1;points=[[0,0,0,0,5],[0,1,0,0,-5],[1,0,0,0,5],[1,1,0,0,-5]];perimeter=orthogonalPerimeter;outlineConnect=0;targetShapes=umlLifeline;portConstraint=eastwest;newEdgeStyle={&quot;curved&quot;:0,&quot;rounded&quot;:0};" parent="1" vertex="1">
          <mxGeometry x="426" y="223" width="10" height="156" as="geometry" />
        </mxCell>
        <mxCell id="EvORvr17HT1seJ1Nro3n-19" value="cipher &amp;amp; encoded IV Key" style="html=1;verticalAlign=bottom;endArrow=open;dashed=1;endSize=8;curved=0;rounded=0;" parent="1" source="EvORvr17HT1seJ1Nro3n-5" edge="1">
          <mxGeometry relative="1" as="geometry">
            <mxPoint x="282" y="262" as="sourcePoint" />
            <mxPoint x="78" y="264" as="targetPoint" />
            <mxPoint as="offset" />
          </mxGeometry>
        </mxCell>
        <mxCell id="EvORvr17HT1seJ1Nro3n-6" value="" style="html=1;points=[[0,0,0,0,5],[0,1,0,0,-5],[1,0,0,0,5],[1,1,0,0,-5]];perimeter=orthogonalPerimeter;outlineConnect=0;targetShapes=umlLifeline;portConstraint=eastwest;newEdgeStyle={&quot;curved&quot;:0,&quot;rounded&quot;:0};" parent="1" vertex="1">
          <mxGeometry x="75" y="290" width="10" height="40" as="geometry" />
        </mxCell>
        <mxCell id="EvORvr17HT1seJ1Nro3n-7" value="encrypt data" style="html=1;align=left;spacingLeft=2;endArrow=block;rounded=0;edgeStyle=orthogonalEdgeStyle;curved=0;rounded=0;" parent="1" edge="1">
          <mxGeometry x="0.0105" relative="1" as="geometry">
            <mxPoint x="79" y="280" as="sourcePoint" />
            <Array as="points">
              <mxPoint x="115" y="280" />
              <mxPoint x="115" y="310" />
            </Array>
            <mxPoint x="84" y="310" as="targetPoint" />
            <mxPoint as="offset" />
          </mxGeometry>
        </mxCell>
      </root>
    </mxGraphModel>
  </diagram>
</mxfile>
